<svg height="29" width="117.124" viewBox="0 0 117.124 29" xmlns="http://www.w3.org/2000/svg"><g transform="translate(0, 0) scale(0.29)" color="#4ad0ff" fill="#4ad0ff"><svg viewBox="0 0 100 100" y="0.0" x="0.0" height="100.0" width="100.0"><g><g><g><g><g><g><path d="M42.966,51.018h0.606c-0.168-0.14-0.33-0.268-0.476-0.422c-4.806-4.341-8.473-12.778-8.473-19.599        c0-9.65,7.9-15.998,15.371-15.998c7.465,0,14.968,6.867,14.968,16.513c0,6.818-4.056,14.999-9.074,19.191        c1.031,3.933,6.678,5.22,18.324,8.414c12.939,3.552,11.579,15.705,10.673,18.245c-1.497,4.195-68.574,4.971-69.839,0        c-0.281-2.057-3.246-14.693,9.695-18.245C36.067,56.008,41.709,54.703,42.966,51.018z" fill="currentColor"></path><path d="M43.572,51.018h-0.606c0.05-0.14,0.088-0.275,0.129-0.422C43.24,50.75,43.405,50.879,43.572,51.018z" fill="currentColor"></path></g></g></g></g><path d="M24.331,57.623l2.164-0.592c4.106-1.121,7.357-2.015,9.796-2.903c-1.913-0.847-3.007-1.78-3.362-3.132    c1.643-1.373,3.129-3.331,4.302-5.512c-2.513-4.452-4.157-9.818-4.157-14.486c0-1.709,0.289-3.44,0.814-5.118    c-1.656-1.024-3.512-1.602-5.369-1.602c-5.591,0-11.503,4.75-11.503,11.972c0,5.104,2.744,11.418,6.34,14.667    c0.109,0.115,0.231,0.211,0.356,0.316h-0.454c-0.94,2.758-5.162,3.734-13.638,6.061c-9.684,2.658-7.465,12.114-7.255,13.653    c0.272,1.069,4.622,1.781,10.697,2.181C12.811,63.074,18.851,59.126,24.331,57.623z" fill="currentColor"></path><path d="M75.385,57.623l-2.164-0.592c-4.106-1.121-7.357-2.015-9.796-2.903c1.913-0.847,3.007-1.78,3.362-3.132    c-1.643-1.373-3.129-3.331-4.302-5.512c2.513-4.452,4.157-9.818,4.157-14.486c0-1.709-0.289-3.44-0.814-5.118    c1.656-1.024,3.512-1.602,5.369-1.602c5.591,0,11.503,4.75,11.503,11.972c0,5.104-2.744,11.418-6.34,14.667    c-0.109,0.115-0.231,0.211-0.356,0.316h0.454c0.94,2.758,5.162,3.734,13.638,6.061c9.684,2.658,7.465,12.114,7.255,13.653    c-0.272,1.069-4.622,1.781-10.697,2.181C86.905,63.074,80.864,59.126,75.385,57.623z" fill="currentColor"></path></g></g></svg></g><line stroke-linecap="round" stroke="#0019ff" y2="28" x2="41" y1="1" x1="41"></line><path transform="translate(51, 6.016)" d="M0 16.85L0 16.85L2.98 0.36Q3 0.26 3.10 0.26L3.10 0.26L6.58 0.26Q6.67 0.26 6.70 0.36L6.70 0.36L9.55 16.85Q9.58 16.97 9.46 16.97L9.46 16.97L6.79 16.97Q6.70 16.97 6.67 16.85L6.67 16.85L6.41 15.10L3.14 15.10L2.88 16.85Q2.86 16.97 2.76 16.97L2.76 16.97L0.10 16.97Q0 16.97 0 16.85ZM4.70 5.78L3.62 12.53L5.93 12.53L4.94 5.78L4.80 4.90L4.70 5.78ZM23.47 16.97L14.52 16.97Q14.40 16.97 14.40 16.85L14.40 16.85L14.40 14.14Q14.40 14.09 14.45 14.04L14.45 14.04L20.38 5.90Q20.54 5.69 20.65 5.34Q20.76 4.99 20.76 4.73L20.76 4.73Q20.76 4.03 20.26 3.44Q19.75 2.86 18.98 2.86L18.98 2.86Q18.24 2.86 17.72 3.42Q17.21 3.98 17.21 4.85L17.21 4.85L17.21 6.02Q17.21 6.14 17.09 6.14L17.09 6.14L14.40 6.14Q14.30 6.14 14.30 6.02L14.30 6.02L14.30 4.85Q14.30 3.50 14.96 2.40Q15.62 1.30 16.69 0.65Q17.76 0 18.98 0L18.98 0Q20.28 0 21.34 0.66Q22.39 1.32 23.03 2.40Q23.66 3.48 23.66 4.73L23.66 4.73Q23.66 5.52 23.39 6.34Q23.11 7.15 22.63 7.78L22.63 7.78L18.07 14.04L23.47 14.04Q23.57 14.04 23.57 14.14L23.57 14.14L23.57 16.85Q23.57 16.97 23.47 16.97L23.47 16.97ZM33.36 16.94L29.06 16.97Q28.94 16.97 28.94 16.85L28.94 16.85L28.99 0.36Q28.99 0.26 29.09 0.26L29.09 0.26L33.58 0.24Q34.90 0.22 35.99 0.86Q37.08 1.51 37.73 2.60Q38.38 3.70 38.38 5.02L38.38 5.02L38.38 11.90Q38.38 13.30 37.70 14.44Q37.03 15.58 35.90 16.25Q34.78 16.92 33.36 16.94L33.36 16.94ZM31.90 3.14L31.87 14.02L33.36 14.02Q34.25 14.02 34.86 13.39Q35.47 12.77 35.47 11.90L35.47 11.90L35.47 4.99Q35.47 4.22 34.91 3.66Q34.34 3.10 33.58 3.12L33.58 3.12L31.90 3.14ZM38.74 16.85L38.74 16.85L41.71 0.36Q41.74 0.26 41.83 0.26L41.83 0.26L45.31 0.26Q45.41 0.26 45.43 0.36L45.43 0.36L48.29 16.85Q48.31 16.97 48.19 16.97L48.19 16.97L45.53 16.97Q45.43 16.97 45.41 16.85L45.41 16.85L45.14 15.10L41.88 15.10L41.62 16.85Q41.59 16.97 41.50 16.97L41.50 16.97L38.83 16.97Q38.74 16.97 38.74 16.85ZM43.44 5.78L42.36 12.53L44.66 12.53L43.68 5.78L43.54 4.90L43.44 5.78ZM53.76 16.97L51.05 16.97Q50.95 16.97 50.95 16.85L50.95 16.85L50.95 3.17L47.83 3.17Q47.71 3.17 47.71 3.05L47.71 3.05L47.74 0.36Q47.74 0.26 47.83 0.26L47.83 0.26L56.95 0.26Q57.07 0.26 57.07 0.36L57.07 0.36L57.07 3.05Q57.07 3.17 56.98 3.17L56.98 3.17L53.83 3.17L53.86 16.85Q53.86 16.97 53.76 16.97L53.76 16.97ZM56.57 16.85L56.57 16.85L59.54 0.36Q59.57 0.26 59.66 0.26L59.66 0.26L63.14 0.26Q63.24 0.26 63.26 0.36L63.26 0.36L66.12 16.85Q66.14 16.97 66.02 16.97L66.02 16.97L63.36 16.97Q63.26 16.97 63.24 16.85L63.24 16.85L62.98 15.10L59.71 15.10L59.45 16.85Q59.42 16.97 59.33 16.97L59.33 16.97L56.66 16.97Q56.57 16.97 56.57 16.85ZM61.27 5.78L60.19 12.53L62.50 12.53L61.51 5.78L61.37 4.90L61.27 5.78Z" fill-rule="nonzero" fill="#0019ff"></path></svg>